<?xml version="1.0" encoding="UTF-8" standalone="no"?>
<!-- Created with Inkscape (http://www.inkscape.org/) -->

<svg
   width="926.49945"
   height="567.87384"
   viewBox="0 0 245.1363 150.24994"
   version="1.1"
   id="svg5"
   inkscape:export-filename="pwa-512x512.png"
   inkscape:export-xdpi="49.152"
   inkscape:export-ydpi="49.152"
   xmlns:inkscape="http://www.inkscape.org/namespaces/inkscape"
   xmlns:sodipodi="http://sodipodi.sourceforge.net/DTD/sodipodi-0.dtd"
   xmlns="http://www.w3.org/2000/svg"
   xmlns:svg="http://www.w3.org/2000/svg">
  <sodipodi:namedview
     id="namedview7"
     pagecolor="#ffffff"
     bordercolor="#666666"
     borderopacity="1.0"
     inkscape:showpageshadow="2"
     inkscape:pageopacity="0.0"
     inkscape:pagecheckerboard="0"
     inkscape:deskcolor="#d1d1d1"
     inkscape:document-units="mm"
     showgrid="false" />
  <defs
     id="defs2" />
  <g
     inkscape:label="Layer 1"
     inkscape:groupmode="layer"
     id="layer1"
     transform="translate(-9.520116,-64.48581)">
    <path
       style="fill:#ffd42a;stroke-width:0.473384;paint-order:stroke markers fill"
       id="path648"
       d="m 22.807564,203.79178 c 0.163325,-0.23429 0.317737,-0.47542 0.489972,-0.70279 1.079,-1.42448 0.404971,-0.35531 1.587699,-2.09861 0.454135,-0.66938 0.860328,-1.37304 1.326924,-2.03325 0.537802,-0.76097 1.125088,-1.48342 1.684437,-2.22768 0.601482,-0.80034 1.198692,-1.60408 1.798038,-2.40612 2.477173,-3.91963 2.141414,-3.26347 4.590467,-7.74273 0.918859,-1.68057 1.869956,-3.34508 2.701245,-5.07342 0.946766,-1.96843 1.795286,-3.98635 2.628853,-6.00846 0.874066,-2.12035 1.788527,-4.22962 2.492876,-6.41607 0.820828,-2.54802 1.383678,-5.17679 2.075516,-7.76519 1.983497,-10.6852 3.534085,-21.45227 4.913751,-32.23617 0.493783,-3.85956 0.925819,-7.72726 1.398086,-11.58966 1.133271,-9.26846 1.368347,-11.02159 2.504386,-19.918014 0.729455,-5.810053 1.475071,-11.61972 2.382799,-17.403642 0.08885,-0.566186 0.465673,-3.237758 0.815209,-4.14655 0.04846,-0.125938 0.19444,-0.182428 0.291658,-0.273648 -4.4338,0.103786 -8.885566,-0.112563 -13.301401,0.311415 -0.313959,0.03009 0.18265,0.623372 0.243475,0.942338 0.101566,0.532612 0.173302,1.071005 0.243069,1.609037 0.08933,0.688959 0.147981,1.381848 0.234153,2.071227 0.113106,0.904919 0.242437,1.807581 0.363656,2.711387 0.119066,0.968793 0.238122,1.937572 0.357186,2.906365 0.116998,0.96343 0.213182,1.929799 0.351004,2.890303 0.473947,3.302984 1.092458,6.58742 1.625911,9.8804 0.185344,1.144152 0.354321,2.291042 0.531481,3.436572 0.190398,1.17407 0.380795,2.34812 0.571191,3.52218 0.526956,3.57401 1.29676,7.10158 1.993998,10.64214 0.713935,3.62534 1.434663,7.23728 2.234543,10.84406 0.897042,3.94139 1.618734,7.9211 2.323602,11.90257 0.557572,3.14948 0.753808,4.1173 1.163333,7.2496 0.143299,1.09602 0.253785,2.19634 0.380676,3.29451 0.556007,5.07827 0.751791,10.18863 0.788933,15.2961 -0.03973,2.56703 0.08527,5.13241 0.08225,7.69927 0.0018,0.96915 -0.04338,1.93714 -0.07022,2.90558 0.08682,-0.18746 -0.06462,0.29493 -0.0746,0.21843 -0.674483,-5.17101 12.482582,-0.0778 13.402342,-0.10225 0.259248,-0.007 0.03339,-0.53421 0.07158,-0.79865 0.07003,-0.48477 0.168558,-0.96472 0.252833,-1.44706 0.793173,-3.6308 1.935139,-7.15845 2.980956,-10.71571 0.756047,-2.57163 1.483188,-5.15221 2.233113,-7.72575 0.374903,-1.27775 0.786208,-2.54474 1.124708,-3.83324 0.423012,-1.61019 1.761008,-7.61835 2.100398,-9.10739 0.75848,-3.32775 1.590583,-6.63809 2.296941,-9.978 0.414927,-1.96194 0.768895,-3.93706 1.153343,-5.90557 1.810771,-8.00712 3.574397,-16.04701 6.051162,-23.871 1.576496,-4.980067 2.053872,-5.984646 3.906305,-10.735401 2.468691,-5.902726 5.522183,-11.516592 9.185629,-16.717834 1.58765,-2.2541 2.62504,-3.509677 4.28726,-5.607215 1.14363,-1.454727 2.43296,-2.771144 3.72476,-4.082293 0,0 -12.970331,-0.970088 -12.970331,-0.970088 v 0 c -1.024026,1.390951 -2.040618,2.788375 -2.980039,4.242505 -2.06668,3.13956 -4.149333,6.269923 -6.090075,9.495046 -0.839064,1.394359 -1.696719,2.779258 -2.458846,4.219799 -1.683867,3.182786 -2.606996,5.649822 -3.990247,8.996883 -0.597223,1.716041 -1.224002,3.421467 -1.791663,5.148134 -0.521006,1.584767 -3.199941,10.321064 -3.607415,11.762774 -1.197969,4.23851 -1.968284,7.60366 -2.962718,11.8874 -0.461412,1.98763 -0.909967,3.97841 -1.364947,5.9676 -3.089567,11.81661 -0.158126,0.34292 -2.666669,10.85432 -1.125609,4.71656 -2.408174,9.38437 -3.719801,14.0483 -0.357658,1.27176 -0.710224,2.54504 -1.065339,3.81757 -1.468979,4.71868 -2.983037,9.43096 -4.689777,14.06548 -0.32545,0.88373 -0.703648,1.74635 -1.022631,2.63258 -0.210366,0.58446 -0.376421,1.18487 -0.564632,1.77732 -0.157623,0.49055 -0.314311,0.98144 -0.472868,1.47169 -0.116362,0.35974 -0.71544,1.02055 -0.351877,1.07828 11.907161,1.89087 13.297133,5.43482 13.473277,-0.0968 -0.04035,-0.98234 -0.132255,-1.96155 -0.194133,-2.94253 -0.17553,-2.56503 -0.321874,-5.13206 -0.467243,-7.69904 -0.03472,-0.56325 -0.219046,-3.58642 -0.255777,-4.04296 -0.305484,-3.79724 -0.760698,-7.58207 -1.121015,-11.37374 -0.514564,-3.55208 -1.06891,-7.09481 -1.749673,-10.61803 -0.502965,-2.60305 -1.090108,-5.18829 -1.593574,-7.79122 -0.265491,-1.37261 -0.505447,-2.75034 -0.758174,-4.12551 -0.693232,-3.70451 -0.6835,-3.75199 -1.425052,-7.34096 -0.240627,-1.16458 -0.50842,-2.32322 -0.738207,-3.49013 -0.69358,-3.52211 -1.28218,-7.06756 -1.923409,-10.5999 -0.528357,-3.45883 -1.037682,-6.920725 -1.564138,-10.379789 -0.163592,-1.074892 -0.357391,-2.14495 -0.507857,-3.22189 -0.282041,-2.018693 -0.45893,-4.051972 -0.74202,-6.070567 -0.09223,-0.959348 -0.210382,-1.916426 -0.276692,-2.878045 -0.04296,-0.62294 -0.153552,-3.919097 -0.164108,-4.764977 -0.0069,-0.553341 0.0022,-1.106808 0.01014,-1.660149 0.0052,-0.355953 0.372253,-1.031441 0.02871,-1.067565 -4.454446,-0.468264 -8.952374,-0.227396 -13.428561,-0.341087 0.391213,1.474922 0.361588,3.139864 0.395962,4.636574 0.133186,5.798731 -0.01014,11.601182 -0.306709,17.392525 -0.188105,3.06849 -0.329257,6.1404 -0.564313,9.20545 -0.651485,8.49508 -1.234306,13.74031 -2.405098,22.26696 -1.483159,10.80157 -3.275165,21.5846 -6.321519,32.05268 -0.847622,2.54996 -1.615631,5.12955 -2.542866,7.6499 -3.307671,8.99071 -7.984457,17.43169 -13.949186,24.82735 -1.760415,2.24522 -3.525652,4.45916 -5.416568,6.58945 -0.515535,0.5808 -1.264846,1.43448 -1.8646,1.97288 -0.2009312,0.18038 -0.4271042,0.32849 -0.6406564,0.49274 0,0 13.2873714,1.25862 13.2873714,1.25862 z"
       inkscape:export-filename="logo.svg"
       inkscape:export-xdpi="103.61582"
       inkscape:export-ydpi="103.61582" />
    <path
       style="fill:#ffd42a;stroke-width:0.473384;paint-order:stroke markers fill"
       id="path650"
       d="m 99.115194,80.701917 c -1.198559,0.434217 -1.796785,0.636384 -3.028467,1.154118 -0.601163,0.252709 -1.225269,0.46187 -1.788866,0.794083 -0.905611,0.533797 -2.512221,1.889079 -3.175962,2.724232 -0.466038,0.5864 -0.796787,1.274371 -1.195184,1.911564 -0.739738,3.02099 -1.586275,6.400538 -1.296722,9.548403 0.218245,2.372693 1.091145,5.213713 2.11811,7.333813 0.545473,1.12612 1.287288,2.13921 1.930935,3.20881 0.756063,0.87458 1.439914,1.82166 2.26819,2.62372 1.624037,1.57262 3.388016,2.74409 5.515152,3.46961 2.14719,0.73235 4.33031,0.88809 6.56886,0.83174 4.99275,-0.12566 9.98173,-0.37833 14.9726,-0.56749 0.86134,-0.41051 1.7936,-0.69022 2.58403,-1.23151 2.30569,-1.57893 4.4963,-4.7865 5.51716,-7.40352 0.803,-2.0585 1.18401,-4.49362 1.60811,-6.651639 0.2228,-2.660341 0.41974,-3.461869 0.1563,-6.072896 -0.17147,-1.699394 -0.41544,-3.424128 -1.71613,-4.684066 -2.00923,-1.946265 -3.98808,-1.944455 -6.58901,-2.532276 -8.25253,-0.552309 -7.37208,-0.606432 -19.93129,-0.100164 -1.1965,0.0482 -2.37387,0.338608 -3.54689,0.586483 -1.955969,0.413308 -3.490216,0.857401 -5.245489,1.799308 -0.590776,0.317015 -1.117822,0.746816 -1.676735,1.120238 0,0 12.679354,1.317766 12.679354,1.317766 v 0 c 0.48087,-0.30771 0.93534,-0.664359 1.44262,-0.923113 1.5292,-0.780084 3.0652,-1.222868 4.74444,-1.554121 1.0999,-0.216976 4.4323,-0.31604 3.3255,-0.491683 -1.19239,-0.189225 -14.4664,-0.322517 -3.61885,-0.05949 1.88319,0.311791 4.20738,0.399807 5.87254,1.6234 1.35668,0.996906 1.6288,2.404973 1.88089,3.97868 0.39769,2.482639 0.20602,3.186076 0.05,5.741445 -0.5155,2.631998 -0.59275,3.792118 -1.68288,6.266918 -1.16009,2.63358 -3.04995,5.14467 -5.55564,6.54277 -0.77401,0.43188 -1.65089,0.62956 -2.47634,0.94435 3.07457,0.12956 6.15646,0.13443 9.2237,0.38871 1.07692,0.0894 -2.16046,0.16279 -3.23951,0.10727 -3.43344,-0.17656 -6.10986,-1.13075 -8.77988,-3.39374 -0.84888,-0.71949 -1.5624,-1.59363 -2.3436,-2.39045 -0.6519,-0.98711 -1.41214,-1.90682 -1.95571,-2.96136 -1.0464,-2.03004 -1.76631,-4.519484 -1.92161,-6.819594 -0.0722,-1.069906 0.031,-2.148717 0.15542,-3.213523 0.11821,-1.011826 0.29357,-2.021995 0.57049,-3.000331 0.25221,-0.891086 0.67319,-1.721892 1.00979,-2.582831 0.40537,-0.538379 0.75838,-1.123386 1.21611,-1.615139 2.20732,-2.371329 5.39791,-3.23876 8.38766,-3.984447 0,0 -13.033147,-1.784067 -13.033147,-1.784067 z" />
    <path
       style="fill:#ffd42a;stroke-width:0.473384;paint-order:stroke markers fill"
       id="path652"
       d="m 134.97884,117.69914 c 1.69737,-0.35133 3.4201,-0.56346 5.11859,-0.91083 1.1339,-0.23189 3.5296,-0.81553 4.65017,-1.08385 2.41883,-0.7838 5.30706,-1.62069 7.15017,-3.54605 1.05935,-1.10664 1.08523,-1.52017 1.64878,-2.89429 -0.0881,-0.64397 -0.0152,-1.33441 -0.26416,-1.93194 -0.61129,-1.4666 -2.29422,-3.03466 -3.42469,-3.98775 -1.78218,-1.50256 -3.89216,-2.83979 -5.80695,-4.126441 -1.02946,-0.691732 -2.05986,-1.381977 -3.08978,-2.07297 -2.94146,-2.167744 -6.55627,-4.322111 -8.50354,-7.598472 -0.83276,-1.401157 -0.82315,-1.974225 -1.13077,-3.504342 0.0561,-1.16954 -0.11121,-2.041735 0.78268,-2.981845 0.96317,-1.012885 3.39432,-1.965852 4.5272,-2.320579 2.85352,-0.89351 5.08858,-1.118426 8.06081,-1.583514 3.41661,-0.369522 4.89478,-0.588211 8.25072,-0.736536 1.05317,-0.04653 4.21618,-0.0592 3.16209,-0.04764 -23.171,0.253379 -11.42571,-0.464434 -8.55674,0.369828 0.35383,0.10295 0.67205,0.307514 1.00807,0.461271 0.27845,0.267685 0.55688,0.535371 0.83533,0.803056 0,0 12.93796,-0.949165 12.93796,-0.949165 v 0 c -0.28796,-0.411063 -0.57592,-0.822127 -0.86389,-1.233176 -0.39894,-0.29846 -0.74391,-0.694784 -1.1968,-0.895349 -0.54406,-0.240966 -1.14117,-0.384316 -1.73305,-0.402246 -4.84619,-0.146791 -9.69631,-0.108105 -14.54456,-0.09083 -0.95467,0.0028 -1.90811,0.08039 -2.86018,0.152964 -3.15286,0.240533 -4.71467,0.476163 -7.94635,0.875872 -3.04002,0.497548 -5.74533,0.798222 -8.6721,1.803403 -1.80669,0.620503 -3.93262,1.611307 -5.1646,3.233732 -0.99115,1.305284 -0.76997,2.342827 -0.77815,3.831471 0.39244,1.6857 0.46125,2.518651 1.37495,4.064455 2.1115,3.572284 5.91167,5.609101 9.09124,7.977204 2.84476,1.880099 3.32521,2.138719 6.04623,4.168709 1.54318,1.15126 2.87713,2.15823 4.18976,3.56867 0.41342,0.44423 0.8419,0.89519 1.12522,1.43712 0.18061,0.34546 0.15271,0.76894 0.22906,1.15341 -0.17864,0.38196 -0.30129,0.7976 -0.53594,1.14586 -1.60518,2.38254 -5.22203,3.37387 -7.75616,4.12164 -2.28165,0.52079 -4.55295,0.97587 -6.8729,1.27807 -0.34058,0.0443 -2.29105,0.27286 -2.88095,0.30204 -0.26444,0.0125 -0.52947,-0.003 -0.79421,-0.005 0,0 13.18744,2.15326 13.18744,2.15326 z" />
    <path
       style="fill:#ffd42a;stroke-width:0.473384;paint-order:stroke markers fill"
       id="path654"
       d="m 160.23403,87.727876 c 1.11637,2.726321 0.47013,1.223035 2.01819,4.57238 0.50006,1.081872 0.9782,2.174819 1.50076,3.24532 1.32874,2.722045 2.7675,5.385874 4.10358,8.104084 0.75802,1.54219 1.48961,3.09805 2.23441,4.64707 1.55158,3.76507 3.4167,7.44623 4.5321,11.39122 0.17836,0.63083 0.62169,1.32943 0.37138,1.93372 -0.14119,0.34082 -1.35097,-0.3274 -1.00124,-0.41323 2.98422,-0.73241 6.05081,-1.04573 9.07623,-1.5686 -5.42785,-2.86883 -7.79285,-3.85989 -12.86814,-7.68556 -3.97413,-2.99562 -7.71366,-6.63404 -11.07091,-10.34187 -3.09979,-3.423486 -4.03915,-4.884919 -6.63242,-8.442981 -1.04376,-1.624765 -2.41877,-3.354222 -2.87361,-5.334855 -0.12866,-0.56014 -0.20871,-1.19743 0.0108,-1.726851 0.22633,-0.546641 0.75066,-0.921163 1.22549,-1.258309 2.00934,-1.426763 4.47693,-2.142972 6.71301,-2.99806 2.03627,-0.622593 4.05826,-1.297092 6.10878,-1.867792 2.31985,-0.645662 4.65936,-1.21483 6.99881,-1.780319 6.85898,-1.657893 13.76711,-3.041428 20.72427,-4.174914 -2.8186,-0.236298 5.5075,-0.376835 4.12671,-0.371485 -11.59933,0.04486 -16.0224,0.527834 -11.73122,0.06868 0,0 13.24482,-1.397424 13.24482,-1.397424 v 0 c -0.17448,-0.182566 -0.27504,-0.53654 -0.5234,-0.547685 -6.83232,-0.306519 -11.28445,-0.771432 -17.13985,0.514725 -6.37699,1.40053 -12.72606,2.92403 -19.07008,4.475072 -2.41479,0.590398 -4.83345,1.164483 -7.24173,1.782478 -2.30601,0.591749 -4.60028,1.231059 -6.90042,1.846589 -2.64144,0.933547 -8.39378,2.152766 -9.24978,5.806811 -0.16967,0.724275 0.0505,1.513999 0.29779,2.21409 0.73966,2.093377 2.48803,3.920198 3.79987,5.563004 1.10458,1.283636 2.18343,2.591305 3.31375,3.850905 3.23899,3.609411 6.03164,6.510021 9.61022,9.831601 1.96513,1.82399 3.94164,3.64078 6.02261,5.32269 1.98735,1.60625 4.09896,3.04235 6.17009,4.53188 1.66858,1.2 3.36554,2.35746 5.0483,3.53621 5.28731,0.51816 10.55101,1.5032 15.86192,1.55451 0.49573,0.005 0.65319,-0.88563 0.61653,-1.39531 -0.053,-0.73567 -0.55934,-1.35839 -0.86269,-2.02651 -1.73396,-3.81912 -3.62289,-7.56457 -5.29092,-11.41631 -0.69146,-1.55685 -1.38292,-3.11369 -2.0744,-4.67054 -0.64679,-1.4246 -1.30287,-2.84477 -1.94037,-4.273818 -1.40029,-3.138888 -2.90447,-6.325343 -3.73761,-9.690905 -0.13162,-0.531609 -0.16843,-1.083474 -0.25266,-1.62521 0,0 -13.26866,0.215541 -13.26866,0.215541 z" />
    <path
       style="fill:#ffd42a;stroke-width:0.473384;paint-order:stroke markers fill"
       id="path656"
       d="m 180.98071,87.275159 c 0.31147,0.586984 0.64734,1.160888 0.93442,1.760941 1.34055,2.801925 2.37628,5.759751 3.49844,8.657301 2.26427,5.846589 0.95107,2.302365 3.24227,8.738899 0.45923,1.5374 0.94143,3.06773 1.37771,4.61223 0.25395,0.89906 1.56077,5.85489 1.79637,7.09241 0.11136,0.58483 -0.39509,1.74847 0.1823,1.77802 15.31197,0.78366 15.66682,1.65088 11.65887,-2.18247 -0.56744,-1.06453 -1.18646,-2.10153 -1.70231,-3.1936 -1.14707,-2.42832 -2.47932,-5.9071 -3.30497,-8.45131 -0.8813,-2.7157 -1.96234,-6.575901 -2.36081,-9.424439 -0.20782,-1.485691 -0.19902,-2.995078 -0.29853,-4.492624 0.23496,-3.02818 0.16413,-4.574805 1.07107,-7.423872 0.30544,-0.959488 0.64726,-1.932558 1.20347,-2.76381 0.92846,-1.387588 3.08252,-3.008494 4.55644,-3.65672 0.86575,-0.380763 1.82247,-0.486068 2.73371,-0.729109 0.88978,0.03761 3.5561,0.02898 2.6693,0.112702 -3.2669,0.308684 -6.63802,-0.231827 -9.8266,0.563566 -0.84462,0.210694 1.5775,0.780376 2.27012,1.321417 1.24284,0.970813 2.57821,2.675667 3.33204,4.081422 0.38963,0.726602 0.62831,1.528919 0.94245,2.293372 0.13748,0.817961 0.37517,1.624639 0.41245,2.453899 0.0841,1.873865 -0.32964,3.791099 -0.85549,5.564174 -0.94793,3.196212 -2.42355,6.024482 -3.96359,8.941382 -0.0554,0.0917 -2.38366,3.92867 -2.57825,4.29293 -0.26611,0.49818 -0.72958,0.97452 -0.70676,1.54276 0.12513,3.11482 4.98738,4.53496 6.97448,5.42337 1.52958,0.60724 3.05183,1.2345 4.58875,1.82172 9.51572,3.6357 2.63054,0.84109 12.04994,4.55168 3.13423,1.23467 6.37473,2.58878 9.49663,3.88047 0,0 11.43785,-1.43266 11.43785,-1.43266 v 0 c -8.66652,-3.19254 -17.31038,-6.45801 -25.76251,-10.22152 -1.52039,-0.74772 -3.63659,-1.67177 -5.10712,-2.72168 -0.30636,-0.21871 -0.75526,-0.40787 -0.81697,-0.78675 -0.0793,-0.48647 0.27335,-0.94766 0.46047,-1.40168 0.45204,-1.09681 1.67439,-3.4047 2.15596,-4.33999 1.92714,-3.91747 4.0598,-7.919331 4.79761,-12.301262 0.16782,-0.996683 0.30019,-2.010097 0.27596,-3.021352 -0.0222,-0.926458 -0.27615,-1.831489 -0.41422,-2.747219 -0.33139,-0.850587 -0.57989,-1.740684 -0.99417,-2.551736 -0.67775,-1.326947 -2.34512,-3.586522 -3.3981,-4.589655 -0.68622,-0.653743 -1.33428,-1.571088 -2.25867,-1.711318 -9.86107,-1.495903 -10.90007,-1.254311 -17.41019,-0.611992 -0.89675,0.36041 -1.84661,0.603675 -2.69029,1.081245 -1.70325,0.964141 -3.63644,2.659536 -4.6201,4.418595 -0.51532,0.921554 -0.78623,1.975466 -1.03213,3.008537 -0.6797,2.85574 -0.56875,4.794538 -0.65381,7.756475 0.1405,1.54944 0.18907,3.110681 0.42148,4.648319 0.3769,2.493537 1.56073,7.177333 2.27735,9.581963 1.19153,3.99824 2.81116,7.85379 3.86253,11.89915 1.71513,6.18955 0.41926,4.10721 13.86588,1.17107 0.62176,-0.13583 -0.52437,-1.19438 -0.75489,-1.80496 -0.62739,-1.6617 -1.94294,-5.57053 -2.43235,-7.08319 -0.49752,-1.53773 -0.96778,-3.08467 -1.45166,-4.62701 -1.44059,-5.00563 -1.15416,-4.16307 -2.64326,-8.79865 -0.93325,-2.905225 -2.00205,-5.779131 -2.83959,-8.716327 -0.1672,-0.586344 -0.28859,-1.185546 -0.43289,-1.778327 0,0 -13.23609,0.515198 -13.23609,0.515198 z" />
    <path
       style="fill:#ffd42a;stroke-width:0.473384;paint-order:stroke markers fill"
       id="path658"
       d="m 139.03212,122.783 c -2.28512,-0.63993 -2.09987,-0.71866 -5.09798,-0.67161 -5.3425,0.0839 -10.69459,0.0778 -16.02202,0.49981 -3.45981,0.27401 -8.85104,2.52164 -11.78964,3.67601 -2.45542,0.96454 -4.88247,2.00415 -7.323702,3.00623 -2.359165,1.21956 -4.905799,2.11273 -7.077496,3.65872 -4.303173,3.06334 -8.436502,8.01659 -10.706462,12.86951 -2.435605,5.20707 -3.616389,12.05566 -3.988431,17.75436 -0.18867,2.88987 0.04232,5.79266 0.06349,8.68899 1.319353,7.16324 1.138727,10.51938 5.779328,16.6745 4.651299,6.16931 10.477137,9.67682 17.450933,12.42557 3.3736,1.32973 6.89605,2.31651 10.46235,2.90554 3.54837,0.58606 7.17673,0.40035 10.7651,0.60053 6.45292,-0.54907 12.98355,-0.48085 19.35882,-1.64721 3.26902,-0.59808 6.40874,-1.97014 9.32769,-3.60106 5.2327,-2.92368 10.03261,-7.54791 12.37947,-13.31935 2.93256,-7.21175 1.70453,-11.58687 1.14181,-19.08248 -1.04836,-3.33155 -1.71401,-6.81805 -3.14507,-9.99466 -1.55995,-3.46272 -3.61005,-6.68649 -5.7677,-9.78954 -4.92525,-7.08322 -8.86799,-10.90107 -15.64924,-16.06795 -2.75109,-2.09614 -5.59967,-4.08578 -8.61996,-5.74186 -2.81796,-1.54515 -5.88484,-2.54988 -8.82726,-3.82482 -2.73375,-0.63972 -5.42649,-1.50792 -8.20124,-1.91915 -2.30765,-0.342 -4.65576,-0.37797 -6.9867,-0.33178 -5.50939,0.10922 -11.029915,0.23355 -16.513096,0.79745 -1.633415,0.168 -3.188491,0.82631 -4.736952,1.38801 -3.090599,1.12114 -3.325317,1.49627 -5.794677,3.22899 -0.753779,1.07178 -1.986611,2.22469 -1.568586,3.79926 0.227295,0.85615 0.927289,1.49593 1.390933,2.24392 0,0 12.605371,-0.83669 12.605371,-0.83669 v 0 c -0.38261,-0.41657 -0.931588,-0.72111 -1.147831,-1.2497 -0.426684,-1.04301 0.628754,-2.07059 1.080791,-2.73049 2.024794,-1.51429 2.337787,-1.93364 4.914817,-2.92201 1.366637,-0.52414 4.61278,0.15539 4.19331,-1.2843 -0.46507,-1.59617 -6.359452,-0.36247 -4.791995,-0.77045 4.283175,-1.1148 12.238885,0.98557 16.132945,1.746 3.03045,1.20765 6.18177,2.13246 9.09133,3.62297 3.11127,1.59382 6.06784,3.51761 8.89922,5.59314 2.98292,2.18664 5.88937,4.52097 8.50244,7.16312 4.86546,4.91959 9.70714,11.71898 12.47062,18.17903 1.33244,3.11476 1.9255,6.51261 2.88824,9.76891 0.18264,3.18928 0.79968,6.38355 0.54792,9.56781 -0.50219,6.3521 -2.42069,11.44045 -6.72897,16.07342 -6.60775,7.10573 -7.66691,4.8731 -16.14042,8.95859 -0.62091,0.29938 -0.92219,1.04578 -1.38328,1.56867 -3.58403,-0.13514 -7.20166,0.11702 -10.75211,-0.40543 -3.55449,-0.52309 -7.0744,-1.43827 -10.44494,-2.71403 -6.73782,-2.55026 -12.291028,-5.84271 -16.652566,-11.86848 -3.996758,-5.52182 -4.200409,-9.82826 -5.496078,-16.22332 -0.212443,-7.2804 -0.769611,-10.16578 0.983948,-17.40685 0.699336,-2.88781 1.628564,-5.7492 2.950616,-8.39527 2.474584,-4.95284 6.334651,-9.25916 10.83093,-12.32317 2.17999,-1.48558 4.68982,-2.37811 7.03472,-3.56715 6.1177,-2.37957 8.69265,-3.61085 15.04224,-5.17792 1.83882,-0.45382 7.20922,0.0269 5.59171,-0.98254 -2.20089,-1.37347 -5.1453,-0.14568 -7.7111,-0.34006 -1.3931,-0.1056 4.36689,-0.26806 4.17302,0.39468 0,0 13.01139,-1.66441 13.01139,-1.66441 z" />
    <path
       style="fill:#ffd42a;stroke-width:0.473384;paint-order:stroke markers fill"
       id="path660"
       d="m 156.29852,132.63664 c 0.0565,0.62712 0.062,1.26135 0.16935,1.88139 0.87881,5.07839 3.37057,9.69753 5.28329,14.39528 1.80174,4.4251 4.66501,12.09629 6.3158,16.46588 2.07892,6.13853 4.11984,11.8103 5.75018,18.11055 0.7479,2.8902 1.35884,5.8187 1.89909,8.75768 0.67611,3.67812 1.54066,9.50027 1.29002,13.42691 -0.0937,1.46957 -0.57776,2.88466 -0.86663,4.32699 4.79532,3.18048 -5.43497,3.25647 -3.82945,3.06566 3.04807,-0.36227 6.49811,0.63385 9.1595,-0.94019 1.26814,-0.75001 -2.6288,-1.34674 -3.82331,-2.2158 -3.94822,-2.87251 -5.30331,-4.86999 -8.62475,-8.64082 -3.37796,-4.80954 -5.75718,-7.71949 -8.1952,-13.22038 -1.293,-2.91733 -2.41794,-5.92994 -3.24591,-9.02171 -1.50777,-5.63024 -2.36199,-13.0478 -2.21321,-18.91646 0.0717,-2.83274 0.59815,-5.63376 0.89724,-8.45065 0.86034,-2.57282 1.49025,-5.24025 2.58101,-7.71849 3.02758,-6.87867 8.08597,-12.88871 14.32629,-16.86679 6.24386,-3.98034 9.77582,-4.63871 16.84482,-7.00179 3.50951,-0.76886 6.98826,-1.70599 10.52851,-2.30655 6.63718,-1.12594 15.17517,-1.8517 21.93073,-1.92461 0.13814,-0.002 -0.16252,0.39631 -0.0274,0.42634 12.71134,2.82531 2.18703,-0.76298 12.93056,3.34294 1.35742,1.02986 2.90871,1.83259 4.07226,3.08958 1.89544,2.04769 3.35667,5.46865 3.54954,8.30133 0.10324,1.51625 -0.0787,3.07141 -0.4855,4.53235 -1.08533,3.89712 -2.67288,5.22224 -5.11225,8.26623 -1.61477,1.12352 -3.14755,2.38382 -4.84433,3.37054 -4.0558,2.35854 -8.00129,3.78004 -12.47663,5.0859 -2.24231,0.65429 -4.5123,1.21591 -6.79965,1.67551 -4.92809,0.99022 -8.07175,1.17789 -13.00587,1.65934 -1.77987,0.0896 -3.55975,0.17917 -5.33961,0.26876 0,0 11.23873,1.76247 11.23873,1.76247 v 0 c 1.6474,-0.12677 3.29481,-0.25369 4.94223,-0.38051 4.66229,-0.55504 8.02017,-0.85153 12.67812,-1.86089 2.27161,-0.49224 4.52206,-1.09357 6.7495,-1.76697 4.8684,-1.47179 8.52061,-2.76009 12.92105,-5.33892 1.85871,-1.08927 3.55406,-2.45124 5.33108,-3.67685 2.51201,-3.28682 4.17523,-4.78571 5.29877,-8.93398 0.43488,-1.6057 0.64609,-3.30913 0.52715,-4.97172 -0.21484,-3.00303 -1.91449,-6.93204 -3.92296,-9.08741 -1.28736,-1.38148 -3.0137,-2.24203 -4.52055,-3.36305 -2.07965,-0.76286 -4.09196,-1.75996 -6.23895,-2.28862 -7.85813,-1.9349 -19.57509,-1.60964 -26.47639,-1.53142 -3.46433,0.0392 -6.92462,0.3231 -10.37426,0.65424 -11.27428,1.08224 -11.3868,1.4327 -22.36062,3.78208 -7.11675,2.31671 -11.57095,3.23457 -17.90894,7.24553 -6.41787,4.06151 -11.26888,10.38819 -14.14637,17.50108 -1.03999,2.57071 -1.64186,5.30728 -2.46279,7.96093 -0.19951,2.86933 -0.61441,5.73134 -0.59851,8.608 0.0173,3.12271 0.31877,6.24239 0.69773,9.34061 0.7449,6.08979 2.1083,13.30434 4.31236,19.05667 1.90177,4.96338 4.80798,9.06968 7.61406,13.48007 3.14994,4.11817 4.04858,5.7232 7.74775,9.05948 1.06516,0.96066 2.0156,2.34472 3.40689,2.61198 5.02375,0.96499 10.19179,1.08314 15.30106,0.98156 0.86807,-0.0172 1.75862,-0.60168 2.26232,-1.33073 0.62771,-0.90857 0.58805,-2.14699 0.88208,-3.22047 0.0794,-1.52755 0.32475,-3.05548 0.23849,-4.58262 -0.22727,-4.02382 -1.60742,-9.82391 -2.49774,-13.56595 -0.70014,-2.94268 -1.45167,-5.87236 -2.21861,-8.79731 -2.84932,-10.86652 -2.0177,-7.82211 -5.50871,-18.1859 -0.97287,-2.88558 -1.94311,-5.77209 -2.91856,-8.65675 -0.88236,-2.60932 -1.85139,-5.1889 -2.65489,-7.82516 -0.69745,-2.28822 -1.26851,-4.61591 -1.84532,-6.93954 -0.64006,-2.57846 -1.15291,-4.49536 -1.16423,-7.07414 -0.003,-0.55378 0.12904,-1.09954 0.19356,-1.6493 0,0 -13.16295,-0.24141 -13.16295,-0.24141 z" />
  </g>
</svg>
